<svg id="Livello_1" data-name="Livello 1" xmlns="http://www.w3.org/2000/svg" viewBox="0 0 119.05 82.21"><defs><style>.cls-1,.cls-2{fill:#fff;}.cls-2{stroke:#fff;stroke-linejoin:round;stroke-width:0.2px;}</style></defs><title>Tavola disegno 1</title><path class="cls-1" d="M34.61,31.7H30.19a2.68,2.68,0,0,0-2,.62,3.38,3.38,0,0,0-.54,2.2V37h5.78v3.25H27.59V58.48H22.72V34.58q0-3,1.3-4.3T28.48,29H34.6v2.7"/><path class="cls-1" d="M43.12,41.51a14,14,0,0,0-.26-3.32,1.13,1.13,0,0,0-1.19-.91,1.11,1.11,0,0,0-1.16.8,13.21,13.21,0,0,0-.27,3.43h2.88m3.79,2.68H40.23a25.49,25.49,0,0,0,.32,5.22,1.31,1.31,0,0,0,1.32,1.12,1.2,1.2,0,0,0,1-.42,2.52,2.52,0,0,0,.33-1.48h3.27a4.75,4.75,0,0,1-1.25,3.63,5.5,5.5,0,0,1-3.86,1.16A4.84,4.84,0,0,1,37,51q-1.49-2.4-1.49-7.14T37,36.8a5.18,5.18,0,0,1,4.66-2.4,4.38,4.38,0,0,1,3.94,1.93,10.57,10.57,0,0,1,1.26,5.75Z"/><path class="cls-1" d="M57.89,38.68a6.79,6.79,0,0,0-1.09-.33,4.73,4.73,0,0,0-1.13-.13,9.19,9.19,0,0,0-1.26.09,1.75,1.75,0,0,0-.87.32V53.25H49V34.63h3.76l.27.85a3.92,3.92,0,0,1,1.46-.82,6.37,6.37,0,0,1,1.87-.26,3.41,3.41,0,0,1,.83.1,3.63,3.63,0,0,1,.75.27v3.9"/><path class="cls-1" d="M68.22,38.68a6.79,6.79,0,0,0-1.09-.33A4.74,4.74,0,0,0,66,38.21a9.19,9.19,0,0,0-1.26.09,1.76,1.76,0,0,0-.87.32V53.25H59.28V34.63H63l.27.85a3.93,3.93,0,0,1,1.46-.82,6.37,6.37,0,0,1,1.86-.26,3.42,3.42,0,0,1,.83.1,3.63,3.63,0,0,1,.75.27v3.9"/><path class="cls-1" d="M76.62,43.9a37.8,37.8,0,0,0-.23-5.54q-.21-1.09-1.12-1.09T74.15,38.4a38.53,38.53,0,0,0-.23,5.6,35,35,0,0,0,.24,5.45q.24,1.11,1.1,1.11t1.08-1.18a32.44,32.44,0,0,0,.27-5.45m4.77,0q0,5-1.52,7.25a5.14,5.14,0,0,1-4.6,2.27A5.07,5.07,0,0,1,70.71,51q-1.52-2.4-1.52-7.14t1.48-7.18a5.82,5.82,0,0,1,9.31,0q1.42,2.38,1.42,7.22Z"/><path class="cls-1" d="M90,53.25H87.1a3.35,3.35,0,0,1-2.57-.93,4,4,0,0,1-.87-2.82V29h4.57V49.31a1.49,1.49,0,0,0,.35,1.11,2.11,2.11,0,0,0,1.39.33v2.5"/><path class="cls-1" d="M91.76,34.63h4.58V53.25H91.76Zm0-5.67h4.58V33.2H91.76Z"/><path class="cls-1" d="M73.57,32.94A28.83,28.83,0,0,0,61,24.39c-9.08-3.32-18.12-2.31-22.45,2a13.85,13.85,0,0,0,2.55,6.52c3.15-6.22,13.63-8.21,24.14-4.37a31.66,31.66,0,0,1,8.52,4.64Z"/><path class="cls-2" d="M73.57,32.94A28.83,28.83,0,0,0,61,24.39c-9.08-3.32-18.12-2.31-22.45,2a13.85,13.85,0,0,0,2.55,6.52c3.15-6.22,13.63-8.21,24.14-4.37a31.66,31.66,0,0,1,8.52,4.64Z"/></svg>